<svg xmlns="http://www.w3.org/2000/svg" version="1.1" xmlns:xlink="http://www.w3.org/1999/xlink" xmlns:svgjs="http://svgjs.dev/svgjs" width="1440" height="560" preserveAspectRatio="none" viewBox="0 0 1440 560"><g mask="url(&quot;#SvgjsMask1015&quot;)" fill="none"><path d="M1389 178L1388 383" stroke-width="6" stroke="url(&quot;#SvgjsLinearGradient1016&quot;)" stroke-linecap="round" class="Down"></path><path d="M1108 383L1107 107" stroke-width="6" stroke="url(&quot;#SvgjsLinearGradient1016&quot;)" stroke-linecap="round" class="Down"></path><path d="M858 295L857 129" stroke-width="6" stroke="url(&quot;#SvgjsLinearGradient1017&quot;)" stroke-linecap="round" class="Up"></path><path d="M1387 491L1386 759" stroke-width="8" stroke="url(&quot;#SvgjsLinearGradient1016&quot;)" stroke-linecap="round" class="Down"></path><path d="M1212 38L1211 354" stroke-width="6" stroke="url(&quot;#SvgjsLinearGradient1017&quot;)" stroke-linecap="round" class="Up"></path><path d="M1317 487L1316 148" stroke-width="6" stroke="url(&quot;#SvgjsLinearGradient1017&quot;)" stroke-linecap="round" class="Up"></path><path d="M534 84L533 394" stroke-width="10" stroke="url(&quot;#SvgjsLinearGradient1016&quot;)" stroke-linecap="round" class="Down"></path><path d="M150 488L149 708" stroke-width="8" stroke="url(&quot;#SvgjsLinearGradient1016&quot;)" stroke-linecap="round" class="Down"></path><path d="M61 67L60 301" stroke-width="8" stroke="url(&quot;#SvgjsLinearGradient1016&quot;)" stroke-linecap="round" class="Down"></path><path d="M302 494L301 796" stroke-width="10" stroke="url(&quot;#SvgjsLinearGradient1017&quot;)" stroke-linecap="round" class="Up"></path><path d="M900 1L899 -379" stroke-width="10" stroke="url(&quot;#SvgjsLinearGradient1016&quot;)" stroke-linecap="round" class="Down"></path><path d="M53 183L52 480" stroke-width="10" stroke="url(&quot;#SvgjsLinearGradient1016&quot;)" stroke-linecap="round" class="Down"></path><path d="M761 414L760 760" stroke-width="10" stroke="url(&quot;#SvgjsLinearGradient1016&quot;)" stroke-linecap="round" class="Down"></path><path d="M205 372L204 707" stroke-width="8" stroke="url(&quot;#SvgjsLinearGradient1016&quot;)" stroke-linecap="round" class="Down"></path><path d="M1157 170L1156 -83" stroke-width="8" stroke="url(&quot;#SvgjsLinearGradient1016&quot;)" stroke-linecap="round" class="Down"></path><path d="M1180 97L1179 360" stroke-width="8" stroke="url(&quot;#SvgjsLinearGradient1016&quot;)" stroke-linecap="round" class="Down"></path><path d="M1223 175L1222 -15" stroke-width="8" stroke="url(&quot;#SvgjsLinearGradient1016&quot;)" stroke-linecap="round" class="Down"></path><path d="M1183 520L1182 735" stroke-width="6" stroke="url(&quot;#SvgjsLinearGradient1016&quot;)" stroke-linecap="round" class="Down"></path><path d="M954 16L953 -380" stroke-width="10" stroke="url(&quot;#SvgjsLinearGradient1016&quot;)" stroke-linecap="round" class="Down"></path><path d="M851 61L850 382" stroke-width="10" stroke="url(&quot;#SvgjsLinearGradient1016&quot;)" stroke-linecap="round" class="Down"></path><path d="M843 315L842 81" stroke-width="6" stroke="url(&quot;#SvgjsLinearGradient1017&quot;)" stroke-linecap="round" class="Up"></path><path d="M659 296L658 -55" stroke-width="6" stroke="url(&quot;#SvgjsLinearGradient1017&quot;)" stroke-linecap="round" class="Up"></path><path d="M184 29L183 238" stroke-width="10" stroke="url(&quot;#SvgjsLinearGradient1017&quot;)" stroke-linecap="round" class="Up"></path><path d="M185 355L184 553" stroke-width="8" stroke="url(&quot;#SvgjsLinearGradient1016&quot;)" stroke-linecap="round" class="Down"></path><path d="M544 262L543 405" stroke-width="6" stroke="url(&quot;#SvgjsLinearGradient1016&quot;)" stroke-linecap="round" class="Down"></path><path d="M1119 277L1118 555" stroke-width="8" stroke="url(&quot;#SvgjsLinearGradient1017&quot;)" stroke-linecap="round" class="Up"></path><path d="M1081 262L1080 -57" stroke-width="8" stroke="url(&quot;#SvgjsLinearGradient1017&quot;)" stroke-linecap="round" class="Up"></path><path d="M1388 531L1387 857" stroke-width="6" stroke="url(&quot;#SvgjsLinearGradient1017&quot;)" stroke-linecap="round" class="Up"></path><path d="M387 482L386 820" stroke-width="10" stroke="url(&quot;#SvgjsLinearGradient1017&quot;)" stroke-linecap="round" class="Up"></path><path d="M756 372L755 217" stroke-width="8" stroke="url(&quot;#SvgjsLinearGradient1017&quot;)" stroke-linecap="round" class="Up"></path><path d="M927 303L926 537" stroke-width="10" stroke="url(&quot;#SvgjsLinearGradient1017&quot;)" stroke-linecap="round" class="Up"></path><path d="M1009 424L1008 631" stroke-width="8" stroke="url(&quot;#SvgjsLinearGradient1017&quot;)" stroke-linecap="round" class="Up"></path><path d="M757 426L756 700" stroke-width="6" stroke="url(&quot;#SvgjsLinearGradient1017&quot;)" stroke-linecap="round" class="Up"></path><path d="M1193 364L1192 113" stroke-width="6" stroke="url(&quot;#SvgjsLinearGradient1017&quot;)" stroke-linecap="round" class="Up"></path><path d="M668 208L667 -131" stroke-width="8" stroke="url(&quot;#SvgjsLinearGradient1016&quot;)" stroke-linecap="round" class="Down"></path><path d="M274 78L273 409" stroke-width="6" stroke="url(&quot;#SvgjsLinearGradient1017&quot;)" stroke-linecap="round" class="Up"></path></g><defs><mask id="SvgjsMask1015"><rect width="1440" height="560" fill="#ffffff"></rect></mask><linearGradient x1="0%" y1="0%" x2="0%" y2="100%" id="SvgjsLinearGradient1016"><stop stop-color="rgba(246, 246, 246, 0)" offset="0"></stop><stop stop-color="rgba(246, 246, 246, 1)" offset="1"></stop></linearGradient><linearGradient x1="0%" y1="100%" x2="0%" y2="0%" id="SvgjsLinearGradient1017"><stop stop-color="rgba(246, 246, 246, 0)" offset="0"></stop><stop stop-color="rgba(246, 246, 246, 1)" offset="1"></stop></linearGradient></defs></svg>