<svg id="visual" viewBox="0 0 900 600" width="900" height="600" xmlns="http://www.w3.org/2000/svg" xmlns:xlink="http://www.w3.org/1999/xlink" version="1.1"><rect x="0" y="0" width="900" height="600" fill="#000000"></rect><path d="M0 410L13.7 422.3C27.3 434.7 54.7 459.3 82 460.2C109.3 461 136.7 438 163.8 440.8C191 443.7 218 472.3 245.2 477.3C272.3 482.3 299.7 463.7 327 460.2C354.3 456.7 381.7 468.3 409 469C436.3 469.7 463.7 459.3 491 462.3C518.3 465.3 545.7 481.7 573 498C600.3 514.3 627.7 530.7 654.8 535.3C682 540 709 533 736.2 515.2C763.3 497.3 790.7 468.7 818 457.8C845.3 447 872.7 454 886.3 457.5L900 461L900 601L886.3 601C872.7 601 845.3 601 818 601C790.7 601 763.3 601 736.2 601C709 601 682 601 654.8 601C627.7 601 600.3 601 573 601C545.7 601 518.3 601 491 601C463.7 601 436.3 601 409 601C381.7 601 354.3 601 327 601C299.7 601 272.3 601 245.2 601C218 601 191 601 163.8 601C136.7 601 109.3 601 82 601C54.7 601 27.3 601 13.7 601L0 601Z" fill="#FFFFFF" stroke-linecap="round" stroke-linejoin="miter"></path></svg>